<?xml version="1.0" encoding="UTF-8" standalone="no"?>
<!-- Created with Inkscape (http://www.inkscape.org/) -->

<svg
   version="1.1"
   id="svg1"
   width="660.4079"
   height="730.7807"
   viewBox="0 0 660.4079 730.7807"
   sodipodi:docname="audrey.svg"
   inkscape:version="1.4.2 (ebf0e940d0, 2025-05-08)"
   xmlns:inkscape="http://www.inkscape.org/namespaces/inkscape"
   xmlns:sodipodi="http://sodipodi.sourceforge.net/DTD/sodipodi-0.dtd"
   xmlns="http://www.w3.org/2000/svg"
   xmlns:svg="http://www.w3.org/2000/svg">
  <defs
     id="defs1" />
  <sodipodi:namedview
     id="namedview1"
     pagecolor="#505050"
     bordercolor="#eeeeee"
     borderopacity="1"
     inkscape:showpageshadow="0"
     inkscape:pageopacity="0"
     inkscape:pagecheckerboard="0"
     inkscape:deskcolor="#505050"
     inkscape:zoom="0.91979124"
     inkscape:cx="246.79513"
     inkscape:cy="350.62304"
     inkscape:window-width="5120"
     inkscape:window-height="1440"
     inkscape:window-x="2256"
     inkscape:window-y="0"
     inkscape:window-maximized="1"
     inkscape:current-layer="g1" />
  <g
     inkscape:groupmode="layer"
     inkscape:label="Image"
     id="g1"
     transform="translate(-161.44778,-145.89848)">
    <path
       style="fill:#000000"
       d="m 629.04641,875.54263 c -22.4798,-5.23026 -33.4342,-15.04336 -39.7739,-35.62983 -4.0723,-13.22372 -7.3396,-41.81468 -8.685,-76 -1.3688,-34.78055 -1.6286,-40.9122 -2.0332,-48 -0.2355,-4.125 -0.725,-17.175 -1.0879,-29 -0.3628,-11.825 -0.7233,-21.58007 -0.8011,-21.67793 -0.078,-0.0979 -3.2402,0.47162 -7.0276,1.26553 -3.7874,0.79391 -10.4987,1.77398 -14.9139,2.17793 l -8.0277,0.73447 -3.6617,12.14027 c -6.9075,22.90155 -13.793,33.70854 -25.1201,39.42644 -7.1507,3.60963 -14.5364,4.80014 -23.703,3.82069 -14.3966,-1.53827 -23.9705,-8.32004 -30.095,-21.31817 -3.667,-7.78258 -4.6197,-12.63233 -6.1753,-31.43615 -1.3887,-16.78584 -1.9322,-18.13308 -7.316,-18.13308 -3.1013,0 -3.4316,0.36498 -6.11,6.75 -4.7986,11.43923 -12.7016,25.27284 -24.2844,42.5075 -5.876,8.74332 -6.602,10.37059 -6.9843,15.65609 -0.5675,7.84569 2.8983,18.21247 10.898,32.5978 7.4523,13.40104 11.2712,18.33201 14.7382,19.0301 7.7135,1.55318 17.9391,5.23743 21.3063,7.67663 5.762,4.17392 11.0243,15.7198 11.0243,24.18791 0,11.77243 -9.7465,18.59059 -27.6667,19.35432 -12.7617,0.54389 -22.3076,-1.41617 -31.8391,-6.53749 -10.59,-5.69006 -14.4632,-11.12854 -29.7144,-41.72286 -7.1285,-14.3 -16.3778,-32.5547 -20.5541,-40.566 -6.5649,-12.59344 -7.6625,-15.43731 -8.1053,-21 -0.543,-6.82104 -0.3967,-7.3694 8.0091,-30.01996 6.9155,-18.6347 6.8975,-42.01439 -0.047,-61.41404 -2.451,-6.8467 -7.3889,-14.95597 -9.6308,-15.81627 -0.6192,-0.23762 -3.6744,-2.50809 -6.7893,-5.04548 l -5.6635,-4.61343 -2.733,7.23759 c -10.7802,28.54891 -24.5752,46.27577 -56.9324,73.15904 -23.42543,19.46257 -31.08861,26.99468 -34.45802,33.86866 -5.82473,11.88311 -9.50011,31.64439 -9.52449,51.20989 -0.0212,16.99566 0.87822,19.17514 10.02877,24.3023 10.26741,5.75295 14.15531,10.70185 16.26024,20.6977 2.6254,12.46709 -3.08953,23.16769 -14.75498,27.627 -10.83758,4.14285 -30.72939,3.58448 -43.57929,-1.22329 -6.23664,-2.33342 -14.75292,-9.5735 -17.42731,-14.81574 -3.18416,-6.24148 -4.34309,-15.01051 -3.67424,-27.80114 0.339,-6.48276 0.84858,-28.88683 1.1324,-49.78683 0.8101,-59.65416 0.64153,-57.12839 4.3103,-64.58508 1.73591,-3.52821 4.74148,-9.11492 6.67904,-12.41492 9.61841,-16.38184 12.36184,-39.98584 9.00762,-77.5 -2.09022,-23.37739 -1.9201,-48.23789 0.45292,-66.18607 4.01864,-30.39475 9.63253,-46.95192 25.536,-75.31393 2.46722,-4.4 4.49153,-8.27391 4.49847,-8.60869 0.007,-0.33478 -4.41259,-4.23042 -9.82118,-8.65698 -34.14764,-27.94753 -54.1176,-60.43479 -60.69213,-98.73433 -7.22306,-42.07754 4.79463,-92.1642 30.36444,-126.5512 11.68668,-15.71659 18.65095,-19.5954 24.80406,-13.81485 3.2988,3.09906 3.09779,9.12004 -0.73402,21.98601 -10.89943,36.59676 -12.04451,70.96284 -3.32238,99.71125 9.60519,31.659 31.46668,62.09641 56.24648,78.31106 9.0732,5.93704 12.1846,6.60968 18.701,4.04282 15.0466,-5.92702 39.7514,-9.78559 56.8598,-8.88078 15.0352,0.79516 25.6506,2.76102 55.2996,10.24094 37.3694,9.42766 52.8426,11.2604 65.4573,7.7532 5.4461,-1.51417 6.279,-2.09232 7.5628,-5.25 4.0615,-9.98932 7.715,-17.04845 8.8236,-17.04845 1.322,0 2.0113,-2.87398 2.9979,-12.5 0.3382,-3.3 0.7913,-7.09428 1.0069,-8.43172 0.8366,-5.19115 1.7129,-22.06828 1.1458,-22.06828 -0.3292,0 -2.2553,1.12428 -4.2801,2.4984 -8.6208,5.85016 -18.2219,5.85812 -30.1192,0.0249 -6.5937,-3.23284 -9.709,-5.75106 -20.314,-16.42088 -13.2079,-13.28861 -31.4099,-34.53233 -37.6744,-43.97018 -8.8517,-13.33563 -11.0666,-25.49031 -6.4839,-35.58092 4.8013,-10.5717 12.0095,-17.61311 56.5408,-55.23197 32.66,-27.59028 52.3807,-31.40728 82.7392,-16.01446 l 10.5958,5.37244 8.4042,-4.30201 c 14.3725,-7.35711 33.3383,-12.84666 52.9042,-15.31284 15.889,-2.00273 43.5595,-0.3985 60.7055,3.51947 10.1064,2.30938 12.3465,1.97318 16.7243,-2.51004 2.1096,-2.16043 6.8134,-5.40123 10.4529,-7.20178 15.2586,-7.54878 37.1378,-3.85196 53.1173,8.97501 8.4613,6.79192 15.2815,13.65812 27.0017,27.18373 15.3308,17.69243 23.8721,25.47822 34.4855,31.43495 10.2409,5.74772 11.8952,7.71592 10.519,12.51466 -3.9242,13.68298 -28.1957,19.40014 -55.3987,13.04918 -4.8908,-1.14185 -9.1099,-1.85863 -9.3757,-1.59285 -0.2658,0.26579 0.6051,5.11418 1.9353,10.77419 l 2.4185,10.29095 21.4572,0.64186 c 26.2422,0.785 32.5371,2.29121 39.4948,9.45016 5.7567,5.92326 7.4208,11.32399 6.5963,21.40798 -0.1124,1.375 0.093,6.79743 0.4567,12.04985 0.4154,6.00186 0.2317,11.5515 -0.4945,14.93754 -2.866,13.36382 -13.1249,26.99579 -24.4661,32.51045 -4.7545,2.3119 -7.7949,2.98454 -16,3.53975 -7.7855,0.52682 -11.6343,1.32925 -16.63,3.46717 -3.575,1.52993 -11.7761,3.69675 -18.2247,4.81515 l -11.7247,2.03345 0.6185,2.57332 c 1.2702,5.28463 4.6422,11.12179 8.3706,14.49019 3.609,3.26051 5.3543,3.96081 15.4603,6.20322 l 4,0.88756 -0.074,6.10956 c -0.092,7.58896 -5.1455,18.95359 -11.4875,25.83386 -5.1973,5.63838 -15.7386,10.97616 -25.7538,13.04083 -11.2347,2.31609 -29.2154,1.8829 -42.8552,-1.03246 l -3.1706,-0.67769 1.6118,4.35912 c 1.222,3.3048 1.626,8.22901 1.6706,20.35913 0.059,16.05823 -0.3824,18.79174 -4.9548,30.67881 -0.58,1.50805 0.1851,1.63438 7.523,1.24207 13.5346,-0.7236 23.6812,3.21241 27.5456,10.68534 2.1378,4.13413 4.3656,23.04974 5.1138,43.42029 0.7653,20.83797 0.1831,25.43371 -3.7967,29.96641 -4.7961,5.46247 -10.6128,7.11141 -35.4326,10.04459 l -5.0605,0.59804 -2.66,11.18223 c -5.0369,21.17385 -8.3915,40.97451 -17.2266,101.68222 -8.4605,58.13345 -9.8116,70.54758 -9.9042,91 -0.084,18.56838 0.019,19.67299 2.1636,23.12097 1.8769,3.018 3.5377,4.07746 9.9735,6.36222 14.2791,5.06918 21.0565,10.93052 24.7358,21.39254 4.8738,13.85834 -1.7884,27.63659 -16.0202,33.13153 -7.2761,2.80931 -26.548,3.69163 -35.4409,1.62257 z m 12.7352,-15.90703 c -0.2996,-2.90246 -1.5703,-7.38813 -2.8237,-9.96816 -2.2178,-4.56478 -2.2296,-4.74562 -0.4403,-6.7228 2.494,-2.75587 4.6661,-2.55401 7.7276,0.71816 3.4523,3.68993 5.3227,7.60799 6.9218,14.5 1.5253,6.57344 2.561,6.9857 9.5631,3.80662 7.5578,-3.43136 9.268,-10.74738 4.6695,-19.97541 -2.8295,-5.678 -8.7431,-10.36011 -14.711,-11.64748 -4.4224,-0.95397 -10.6555,-4.19772 -13.8893,-7.22808 -6.3355,-5.93697 -8.8744,-22.24003 -6.8065,-43.70565 2.8317,-29.39271 11.0464,-88.7653 18.125,-131 1.6593,-9.9 3.2384,-19.35 3.5092,-21 1.6225,-9.88541 3.7629,-21.17946 5.5437,-29.25222 1.1225,-5.08872 1.8912,-9.60975 1.7083,-10.04675 -0.1829,-0.43699 -8.6576,-0.015 -18.8326,0.93778 -23.8367,2.23202 -59.8105,3.97681 -67.4815,3.27296 -6.8418,-0.62777 -14.0127,-3.83148 -16.6544,-7.44055 -0.9949,-1.35917 -2.48,-5.09065 -3.3002,-8.29218 -1.4693,-5.73459 -2.98,-32.52484 -2.9215,-51.80553 0.037,-12.09416 1.5604,-15.24013 9.1851,-18.96537 l 5.305,-2.59186 -6.3162,-2.25466 c -3.474,-1.24006 -11.7163,-4.86253 -18.3163,-8.04992 -30.499,-14.72915 -56.5055,-37.13042 -66.7675,-57.5117 -2.2506,-4.47004 -5.7325,-16.31406 -5.7325,-19.50002 0,-2.62947 -0.1863,-2.74767 -3.25,-2.06217 -4.7613,1.06536 -22.892,0.22385 -33.2188,-1.54181 -4.9329,-0.84341 -14.8329,-3.08438 -22,-4.97994 -37.3879,-9.88831 -60.3125,-13.78995 -76.0312,-12.94007 -7.2461,0.39179 -17.7106,1.42757 -20.5,2.0291 -6.0396,1.30245 -8.7816,2.04406 -15.5,4.19214 -4.4,1.40683 -12.357,4.77652 -17.6822,7.48822 -20.18132,10.27674 -38.93242,32.40053 -52.05436,61.41724 -6.28336,13.89446 -11.5908,32.08739 -13.82726,47.39731 -1.76533,12.0848 -1.2804,61.39007 0.70323,71.5 0.21582,1.1 0.6617,8.3 0.99082,16 1.00563,23.52669 -3.28698,47.38379 -11.3356,63 -1.98429,3.85 -4.99983,9.68286 -6.7012,12.9619 l -3.0934,5.9619 -0.71267,43.5381 c -0.39198,23.94596 -0.94845,49.8381 -1.23662,57.5381 -0.59656,15.94026 0.11019,20.24437 4.1657,25.36915 3.07277,3.88294 12.24389,9.04588 16.16242,9.09875 2.28155,0.0308 2.35149,-0.17401 1.71022,-5.00816 -0.36774,-2.77215 -1.19703,-6.20001 -1.84287,-7.61748 -1.02655,-2.25302 -0.8896,-2.8077 1.08865,-4.4096 1.2446,-1.00781 2.80455,-1.62454 3.46655,-1.3705 2.78539,1.06885 7.25128,10.21205 9.12786,18.68784 0.49148,2.21982 1.16221,2.75 3.47903,2.75 1.57859,0 3.85308,-0.79592 5.05443,-1.76871 2.17821,-1.76381 2.5843,-5.87771 1.74761,-17.70383 -0.27269,-3.85429 2.55584,-4.56551 5.84988,-1.47091 2.27864,2.14067 3.4662,4.89479 4.92825,11.42932 0.60215,2.69127 0.7712,2.80156 1.71345,1.11785 1.3802,-2.46627 0.33075,-10.89345 -1.80732,-14.51291 -0.96825,-1.63912 -4.73888,-4.56566 -8.79475,-6.82596 -8.44149,-4.70437 -12.96844,-10.09358 -14.50774,-17.27108 -3.49293,-16.28698 1.52691,-56.80858 8.98057,-72.49377 4.82747,-10.15874 10.79878,-16.40411 35.12322,-36.73522 28.7261,-24.0102 37.307,-33.36113 48.1269,-52.4457 10.1094,-17.83119 15.9818,-36.55749 18.2759,-58.27922 0.7819,-7.40308 1.8193,-13.85779 2.3052,-14.34378 1.5955,-1.59546 4.553,-0.22702 6.0864,2.81615 1.6774,3.32906 2.1016,21.02625 0.7248,30.24116 l -0.7849,5.2534 4.371,4.2466 c 10.7745,10.46805 48.9223,34.19887 69.6141,43.30535 12.3438,5.43246 28.6897,11.14897 33.1633,11.59792 l 3.4214,0.34334 -0.3504,-11.77655 c -0.3673,-12.34579 0.2686,-14.72345 3.9377,-14.72345 2.6029,0 3.5633,2.32315 5.4023,13.06767 2.4709,14.43688 2.5127,14.77707 4.5396,36.93233 2.7941,30.53984 6.1363,38.49651 18.9708,45.16272 6.2337,3.23772 19.5066,3.28971 25.5947,0.10025 9.3331,-4.88949 15.007,-15.29437 21.9556,-40.26297 7.381,-26.52231 7.7263,-27.45541 10.2974,-27.82676 4.0444,-0.58414 5.3491,1.57473 4.9834,8.24592 l -0.3311,6.03968 4.5,-0.26823 c 12.7337,-0.75901 26.3707,-4.81429 42.5,-12.63832 15.7954,-7.66204 16.4026,-7.87801 18.1268,-6.4471 4.6482,3.85769 -3.3038,12.17468 -19.3819,20.27148 l -7.2449,3.64847 0.014,18.73743 c 0.015,20.24771 1.4096,52.99445 4.0569,95.23743 3.5954,57.37317 9.3193,75.84118 26.1218,84.28039 6.3382,3.18344 14.8395,5.56315 20.1976,5.6538 l 3.8899,0.0658 z m -203.0335,-54.91004 c -0.2868,-2.1382 -1.7432,-5.48952 -3.2366,-7.44739 -2.7131,-3.55707 -2.7136,-3.56127 -0.7197,-5.55524 1.8981,-1.89809 2.151,-1.91505 5.1821,-0.34764 3.8914,2.0123 8.9075,9.65305 9.7351,14.82898 0.4443,2.77865 1.0039,3.66677 2.0558,3.26312 0.7948,-0.30502 2.0834,-0.55459 2.8634,-0.55459 4.6594,0 6.846,-7.7274 4.0414,-14.28212 -2.6786,-6.26017 -11.217,-11.6789 -18.4989,-11.73984 -9.1226,-0.0763 -19.0616,-10.74076 -29.4821,-31.63405 -9.592,-19.23215 -11.6479,-29.98462 -7.8096,-40.84399 0.972,-2.75 5.6914,-10.7509 10.4874,-17.77978 9.1801,-13.45386 23.5655,-41.2816 22.0602,-42.67404 -0.4841,-0.44777 -4.4802,-2.06926 -8.8802,-3.60331 -10.0185,-3.49293 -19.401,-7.96793 -36.0672,-17.20249 -7.187,-3.98221 -13.6625,-7.24038 -14.3899,-7.24038 -1.4085,0 -1.3473,1.15651 1.0318,19.5 1.3394,10.32749 0.5974,27.70363 -1.4749,34.53677 -0.7566,2.49522 -3.4512,9.60401 -5.9878,15.79731 -7.0019,17.09562 -6.621,20.83087 4.0665,39.88679 3.0166,5.37852 11.3715,21.67168 18.5664,36.20701 7.6719,15.49877 14.5304,28.03138 16.5848,30.30534 4.5704,5.05885 10.3544,8.31678 17.1703,9.67134 12.3986,2.46403 13.4138,2.21692 12.7017,-3.0918 z m 166.7202,-225.28267 c 9.8571,-0.34612 21.3321,-1.0394 25.5,-1.54062 10.7699,-1.29514 16.177,-1.80486 37.0781,-3.4953 10.175,-0.82293 22.325,-2.16331 27,-2.97863 11.9562,-2.08514 12.1443,-2.38448 11.8965,-18.93334 -0.2891,-19.30687 -2.2331,-40.47268 -4.025,-43.82185 -1.9627,-3.66841 -6.2504,-4.76149 -18.5718,-4.73455 -6.4898,0.0142 -16.2997,0.45811 -21.7997,0.98648 -24.4519,2.34905 -23.4513,2.0705 -23.4847,6.53772 -0.041,5.45386 -6.1186,6.08401 -9.1487,0.94851 -1.5831,-2.68322 -2.5909,-3.40628 -4.3125,-3.09409 -1.2357,0.22407 -8.2783,0.69696 -15.6504,1.05086 -7.372,0.35391 -15.4287,0.82888 -17.9037,1.05548 -21.822,1.99793 -28.0153,3.48078 -29.3788,7.03404 -0.8586,2.23761 -0.7138,18.91022 0.3277,37.71012 0.9789,17.67054 2.2366,21.4525 7.7345,23.25812 3.209,1.05389 5.1838,1.05486 34.7385,0.017 z m -33.2845,-17.27336 c -1.3375,-2.49921 3.3165,-27.9958 5.5634,-30.47863 1.9532,-2.15821 6.5986,-2.32726 8.28,-0.30132 1.1637,1.40221 3.6778,11.01936 6.2456,23.89149 1.0563,5.29512 0.9952,5.99651 -0.6251,7.18132 -2.4798,1.81329 -4.593,0.74162 -5.2765,-2.67586 -0.498,-2.49007 -1.0295,-2.87373 -3.9812,-2.87373 -2.3715,0 -3.5706,0.53166 -3.9471,1.75 -1.5698,5.08002 -4.5296,6.7383 -6.2591,3.50673 z m 11.3352,-15.50673 c -0.955,-5.77113 -1.8024,-6.8373 -2.5831,-3.25 -1.283,5.89552 -1.0266,7.5 1.1984,7.5 1.9,0 2.0246,-0.38248 1.3847,-4.25 z m 16.3221,14.7579 c -3.6205,-2.04083 -4.7823,-6.69523 -4.7891,-19.18647 -0.01,-10.68779 1.1559,-13.81808 4.8658,-13.11087 1.3575,0.25878 1.7169,2.26372 2.1589,12.04452 0.4121,9.11985 0.9022,12.106 2.1998,13.40358 1.3794,1.37936 1.939,1.44593 3.2197,0.38299 1.2394,-1.02858 1.5502,-3.64347 1.5502,-13.04165 0,-12.16897 0.8271,-14.77104 4.2747,-13.44808 2.2422,0.86039 2.6965,3.64873 2.7117,16.64232 0.013,10.74628 -0.1714,11.90938 -2.2694,14.34837 -2.8431,3.30533 -9.8023,4.2877 -13.9223,1.96529 z m 20.8368,-1.62363 c -2.2645,-3.23311 -2.4137,-28.99019 -0.1786,-30.84516 1.8525,-1.53741 9.6987,-1.56354 12.5422,-0.0418 3.3187,1.77615 5.958,8.61653 5.9814,15.50265 0.034,9.98599 -4.2484,15.79288 -12.595,17.07897 -3.5681,0.54979 -4.3365,0.32333 -5.75,-1.6947 z m 9.8118,-9.10678 c 3.1814,-4.54205 1.0284,-14.77749 -3.1084,-14.77749 -1.3216,0 -1.4699,1.22383 -0.9997,8.25 0.3036,4.5375 0.5775,8.3625 0.6085,8.5 0.2229,0.98877 2.2099,-0.13114 3.4996,-1.97251 z m 12.7174,7.91609 c -0.5963,-0.71853 -1.3779,-7.59576 -1.7367,-15.28274 -0.5534,-11.85331 -0.4208,-14.16857 0.8726,-15.24197 2.3773,-1.97301 8.343,-2.56082 11.7341,-1.15618 5.8244,2.41254 7.8906,11.27511 3.8317,16.43517 l -2.1377,2.71758 2.1377,3.80344 c 2.6343,4.68717 2.7214,7.64834 0.2635,8.96376 -2.1349,1.14257 -3.8062,-0.30268 -6.4982,-5.61923 -2.3392,-4.61998 -3.2161,-4.68615 -2.7892,-0.21048 0.5373,5.63499 -2.8626,8.98277 -5.6778,5.59065 z m 9.227,-19.94358 c 0.803,-1.27504 0.8025,-2.22496 0,-3.5 -1.9134,-3.03342 -3.8598,-2.06707 -4.2014,2.08594 -0.261,3.17376 -0.021,3.77794 1.3929,3.5 0.9395,-0.18477 2.2042,-1.12344 2.8103,-2.08594 z m 12.1838,18.67857 c -1.2771,-1.27706 -1.5686,-4.1338 -1.5562,-15.25 0.01,-7.52321 0.4227,-14.32227 0.9206,-15.10901 0.5588,-0.88309 3.1759,-1.59469 6.8393,-1.85968 5.3411,-0.38634 5.9881,-0.22304 6.4737,1.63396 0.6993,2.67401 -1.0982,4.9312 -4.2489,5.33542 -2.0073,0.25754 -2.5617,0.96116 -2.8133,3.57074 -0.2762,2.86461 -0.024,3.25 2.1275,3.25 3.3394,0 5.3665,2.47488 3.6858,4.5 -0.6847,0.825 -2.0898,1.5 -3.1224,1.5 -1.0327,0 -1.9338,0.45 -2.0026,1 -0.5082,4.06602 -0.2661,4.51228 2.625,4.83849 8.8514,0.99868 6.6573,8.16151 -2.5,8.16151 -3.0822,0 -5.4313,-0.57423 -6.4285,-1.57143 z m 23,-1.31293 c -0.3006,-0.4864 -0.5962,-3.0739 -0.6569,-5.75 -0.078,-3.42932 -1.3212,-7.46972 -4.2122,-13.68712 -3.1842,-6.84766 -3.8655,-9.19705 -3.045,-10.5 2.1609,-3.43159 4.1601,-2.47615 7.1369,3.41088 l 2.891,5.71741 1.1526,-4.57718 c 1.4696,-5.83619 3.5855,-8.10861 6.2316,-6.69246 2.5089,1.34276 2.4576,2.02143 -0.9092,12.02524 -1.8736,5.56727 -2.687,9.71235 -2.3909,12.18488 0.6967,5.81735 -0.3863,8.75271 -3.2294,8.75271 -1.3321,0 -2.6679,-0.39796 -2.9685,-0.88436 z m -61.2924,-59.68122 4.7791,-0.64044 -0.2791,-12.57416 -0.2791,-12.57417 -6.5,0.22026 c -8.0981,0.27442 -27.8958,-2.29262 -38.5,-4.99207 -18.6114,-4.7378 -42.026,-15.40925 -56.4803,-25.74154 -18.3973,-13.1508 -32.798,-27.62699 -39.7907,-39.99929 -3.4497,-6.10351 -3.1371,-6.30921 -7.6483,5.0338 -2.4121,6.06515 -2.5478,7.10299 -1.5037,11.5 8.1967,34.51734 62.4728,72.26168 115.423,80.26659 6.1012,0.92237 22.1093,0.66286 30.7791,-0.49898 z m 31.8396,-6.09551 c 2.7757,-1.51075 6.1234,-4.02637 7.4394,-5.59028 3.2998,-3.92157 5.4419,-11.80182 5.4419,-20.01902 v -6.9074 l -3.1335,2.63669 c -4.7078,3.96135 -10.3337,6.53205 -17.7225,8.09815 -3.6542,0.77452 -6.9914,1.41604 -7.4161,1.42559 -0.4246,0.01 -0.5684,2.37986 -0.3195,5.26736 0.249,2.8875 0.4839,8.35018 0.5221,12.13929 l 0.07,6.88929 5.036,-0.59643 c 2.7697,-0.32804 7.3069,-1.83249 10.0827,-3.34324 z m -9.5603,-34.19991 c 7.5743,-2.20286 12.2779,-6.10963 14.8939,-12.37053 1.8654,-4.46453 2.0189,-10.35726 0.2977,-11.4282 -0.6875,-0.42776 -7.325,-2.85123 -14.75,-5.38548 -7.425,-2.53425 -15.6678,-5.57392 -18.3173,-6.75483 -7.7379,-3.44877 -21.4325,-12.06641 -23.645,-14.87917 -2.4329,-3.09292 -2.6288,-6.58532 -0.4699,-8.37702 1.3217,-1.09695 2.6947,-0.70894 8.75,2.47282 25.2884,13.28786 29.2251,14.89032 52.0253,21.17722 15.9088,4.38668 21.2421,5.30557 35.1569,6.05728 22.7492,1.22896 39.134,-5.17262 45.5803,-17.80834 3.5319,-6.92326 2.4235,-7.41952 -5.3976,-2.41647 -9.1597,5.85941 -14.3927,7.08779 -29.6827,6.96763 -10.3745,-0.0815 -15.4095,-0.60726 -21.748,-2.27079 -26.5657,-6.97216 -44.7426,-17.36401 -63.548,-36.33069 -14.7682,-14.89496 -21.5791,-27.33612 -20.4498,-37.35493 0.6177,-5.48022 3.4479,-8.89305 9.7458,-11.75187 8.9459,-4.06082 24.9772,-1.51969 25.811,4.09131 1.0065,6.77243 35.8688,20.51454 60.189,23.72543 7.3416,0.96928 39.8107,0.62042 46.0107,-0.49436 23.0865,-4.15102 36.2983,-16.4983 37.2061,-34.77145 0.2504,-5.0385 0.051,-5.73853 -1.7168,-6.03126 -15.7101,-2.60134 -25.7125,-12.63301 -23.9979,-24.06799 0.815,-5.43575 1.8501,-7.67965 5.2021,-11.27762 1.3529,-1.45216 2.0757,-2.87772 1.6061,-3.16791 -0.4695,-0.29018 -3.7689,-0.18199 -7.332,0.24042 -3.563,0.42241 -13.707,0.86291 -22.5422,0.97889 -14.4144,0.18921 -16.302,0.018 -18.3831,-1.66712 -1.9818,-1.60479 -2.1493,-2.19553 -1.1509,-4.06097 0.6426,-1.20065 1.49,-2.21282 1.8831,-2.24927 0.3932,-0.0364 5.4398,-0.61936 11.2148,-1.29537 l 10.5,-1.22911 -0.3043,-2.81001 c -0.5291,-4.88449 -6.2577,-20.76769 -10.7493,-29.80381 -10.5288,-21.1816 -23.6431,-37.06044 -38.6972,-46.85461 -29.0878,-18.92449 -82.4665,-23.31703 -121.2492,-9.97761 -13.0982,4.50515 -18.5,7.24179 -18.5,9.37236 0,1.11954 -0.9784,3.07703 -2.1743,4.34998 -3.6156,3.84865 -7.9497,3.10031 -19.3324,-3.33802 -14.6333,-8.27699 -20.5686,-10.42904 -30.4933,-11.05637 -18.6914,-1.18148 -32.0604,6.9685 -77.6164,47.31613 -8.864,7.85061 -17.5182,16.39027 -19.2316,18.97702 -8.89,13.42143 -4.2713,23.43077 27.0372,58.59341 18.5314,20.81267 29.2041,29.24118 37.8121,29.86106 6.0933,0.4388 7.7661,0.0279 11.0149,-2.70588 7.4739,-6.28882 11.1914,-16.17532 16.4821,-43.8329 4.036,-21.09818 6.6073,-32.03112 9.643,-41 3.2833,-9.7008 11.6907,-26.33973 13.9089,-27.52688 3.4096,-1.82474 7.2942,-0.81315 8.3373,2.17114 0.7721,2.20898 0.1702,4.1042 -3.6565,11.51335 -6.0301,11.67547 -10.7006,27.38169 -17.2004,57.84239 -4.8661,22.80458 -5.3929,26.53679 -5.998,42.5 -0.7012,18.49778 -3.0196,44.69464 -4.5711,51.65177 -1.6631,7.45743 2.5875,15.61883 14.8406,28.49473 23.7216,24.92734 58.5702,43.39154 91.1979,48.32032 10.2255,1.54466 40.8619,1.32895 46.5584,-0.32782 z m -64.3084,-176.21754 c -1.9878,-0.75714 -2.25,-1.55558 -2.25,-6.85172 0,-11.62302 6.2054,-22.27874 16.3686,-28.10785 10.0334,-5.75465 24.8011,-3.22735 32.5214,5.56562 7.1514,8.145 10.1699,16.20593 7.56,20.18913 -1.9833,3.02697 -4.9385,2.89122 -7.1533,-0.3286 -6.7004,-9.74077 -14.5769,-15.38804 -21.4624,-15.38804 -6.7991,0 -16.4524,9.45516 -18.6783,18.29493 -1.373,5.45268 -3.821,7.8016 -6.906,6.62653 z m 110.4626,-16.54222 c -0.3919,-0.39191 -0.7126,-2.90253 -0.7126,-5.57915 0,-9.18647 7.3763,-19.4079 15.7896,-21.87998 8.7453,-2.5696 20.4552,3.92719 25.1517,13.95445 1.9945,4.25834 2.2007,5.5185 1.2458,7.61416 -1.8251,4.00578 -6.1297,3.41051 -9.9795,-1.38005 -1.7199,-2.14023 -5.1417,-4.86655 -7.6039,-6.05849 -4.0829,-1.97647 -4.7243,-2.03839 -7.2902,-0.70369 -3.7633,1.95756 -6.7225,5.30888 -8.9654,10.15351 -1.3518,2.91983 -2.5365,4.07991 -4.3874,4.29591 -1.3945,0.16275 -2.8562,-0.0247 -3.2481,-0.41667 z m -430.7738,141.52999 4.4389,-3.56717 -5.9389,-4.36245 c -31.6845,-23.27438 -54.43984,-59.21734 -62.56779,-98.82837 -2.86151,-13.94536 -3.55999,-40.07569 -1.48759,-55.65124 1.32469,-9.95602 4.93386,-27.34421 7.21285,-34.75 2.04889,-6.65801 -7.58428,6.2452 -13.58836,18.20103 -4.85138,9.66047 -11.49108,27.45513 -13.82405,37.04897 -3.96973,16.32463 -4.67915,22.38683 -4.68096,40 -0.002,18.98633 1.80681,30.38809 7.20514,45.41878 9.16902,25.52952 28.50809,50.81593 52.79199,69.02712 3.85,2.88722 7.675,5.48436 8.5,5.77141 0.93682,0.32595 4.50365,-2.34335 9.5,-7.1095 4.4,-4.19728 9.99747,-9.23664 12.43877,-11.19858 z m 446.0612,-5.26968 c 0,-5.1858 -9.053,-15.6182 -19.5988,-22.58499 -13.3142,-8.79568 -31.4736,-12.81089 -41.8352,-9.25013 -2.7136,0.93256 -5.0945,2.20056 -5.2907,2.81777 -1.0398,3.27067 16.8332,16.24962 31.2247,22.67473 9.9714,4.45172 24.5534,8.40138 31.75,8.59972 3.3034,0.091 3.75,-0.17776 3.75,-2.2571 z m 84.0542,-57.50955 c 10.0836,-6.50951 15.8704,-16.34341 16.7359,-28.44055 0.5657,-7.90601 1.4835,-7.50267 -8.7165,-3.83077 l -5.4265,1.95346 -0.2269,8.34393 c -0.2472,9.09087 -2.0774,15.39472 -5.9398,20.45854 -4.0997,5.37506 -3.0769,5.80879 3.5738,1.51539 z m 3.1958,-110.59322 c 0.9625,-0.41292 1.7414,-1.04011 1.7309,-1.39377 -0.011,-0.35365 -2.8231,-2.28878 -6.25,-4.30029 -8.9831,-5.27271 -16.9141,-12.87376 -33.258,-31.87424 -7.9372,-9.22735 -16.8031,-18.87142 -19.7021,-21.43126 -14.0295,-12.38846 -32.3217,-17.64686 -43.5934,-12.53163 -4.93,2.23729 -10.1774,5.77737 -10.1774,6.86604 0,0.40449 2.3625,2.00602 5.25,3.55896 7.6585,4.11885 20.7019,14.57899 27.1749,21.79282 5.6905,6.34185 15.7481,20.35593 20.0711,27.96663 2.1645,3.81067 3.0447,4.37017 11.1296,7.07438 13.8421,4.62983 20.6001,5.69567 33.8744,5.34244 6.6,-0.17563 12.7875,-0.65716 13.75,-1.07008 z"
       id="path1" />
  </g>
</svg>
